<svg 
width="24px" height="24px" 
viewBox="0 0 24 25" 
fill="none" 
xmlns="http://www.w3.org/2000/svg">
<title>NUSphere</title>
<path d="M9.59849 12.2528C10.7743 12.2528 11.7276 11.3023 11.7276 10.1298C11.7276 8.95734 10.7743 8.00684 9.59849 8.00684C8.42264 8.00684 7.46942 8.95734 7.46942 10.1298C7.46942 11.3023 8.42264 12.2528 9.59849 12.2528Z" fill="white"/>
<path d="M9.59851 17.1312C10.7746 17.1312 11.7279 16.1806 11.7279 15.0079C11.7279 13.8352 10.7746 12.8845 9.59851 12.8845C8.42246 12.8845 7.46909 13.8352 7.46909 15.0079C7.46909 16.1806 8.42246 17.1312 9.59851 17.1312Z" fill="white"/>
<path d="M14.4477 17.1314C15.6238 17.1314 16.5772 16.1806 16.5772 15.0079C16.5772 13.8351 15.6238 12.8844 14.4477 12.8844C13.2716 12.8844 12.3181 13.8351 12.3181 15.0079C12.3181 16.1806 13.2716 17.1314 14.4477 17.1314Z" fill="white"/>
<path d="M14.4481 12.2536C15.6242 12.2536 16.5777 11.3028 16.5777 10.1301C16.5777 8.95731 15.6242 8.00659 14.4481 8.00659C13.272 8.00659 12.3186 8.95731 12.3186 10.1301C12.3186 11.3028 13.272 12.2536 14.4481 12.2536Z" fill="white"/>
<path d="M5.99684 8.36936C5.25867 8.2476 4.51717 9.01148 4.34065 10.0755C4.16413 11.1396 4.61943 12.1009 5.35759 12.2226C6.09575 12.3444 6.83725 11.5805 7.01378 10.5165C7.1903 9.45242 6.735 8.49112 5.99684 8.36936Z" fill="white"/>
<path d="M11.7276 5.82031C11.6075 5.08393 10.6448 4.62731 9.57732 4.80041C8.50987 4.97352 7.7419 5.71081 7.862 6.44719C7.98211 7.18356 8.9448 7.64019 10.0122 7.46708C11.0797 7.29397 11.8477 6.55669 11.7276 5.82031Z" fill="white"/>
<path d="M5.25617 5.82166C5.91119 5.16126 6.79751 4.97675 7.23716 5.40977C7.67632 5.84274 7.50231 6.72894 6.84782 7.38953C6.19233 8.05017 5.30649 8.23468 4.86636 7.8019C4.42719 7.36893 4.60164 6.48254 5.25617 5.82166Z" fill="white"/>
<path d="M7.84276 18.5893C7.72071 19.3254 8.48699 20.0647 9.5543 20.2407C10.6216 20.4166 11.5857 19.9626 11.7078 19.2265C11.8298 18.4905 11.0636 17.7512 9.99625 17.5752C8.92895 17.3992 7.9648 17.8533 7.84276 18.5893Z" fill="white"/>
<path d="M4.26357 15.0194C4.09052 13.955 4.54851 12.995 5.28673 12.8753C6.02495 12.7555 6.76504 13.5211 6.939 14.5857C7.11157 15.6505 6.65454 16.6105 5.91584 16.7303C5.17714 16.8496 4.43801 16.0842 4.26357 15.0194Z" fill="white"/>
<path d="M4.87481 17.3531C4.44062 17.7912 4.62568 18.6755 5.28814 19.3283C5.95061 19.9811 6.83963 20.1551 7.27382 19.717C7.70802 19.2789 7.52296 18.3945 6.86049 17.7417C6.19802 17.0889 5.309 16.9149 4.87481 17.3531Z" fill="white"/>
<path d="M19.7064 15.0624C19.5292 16.1267 18.7881 16.8904 18.0499 16.7685C17.3117 16.6469 16.8556 15.6859 17.0324 14.6216C17.2092 13.5575 17.9502 12.7935 18.6885 12.9157C19.4267 13.0371 19.8818 13.9988 19.7064 15.0624Z" fill="white"/>
<path d="M14.4698 20.3375C13.4024 20.5105 12.4394 20.0541 12.3191 19.3175C12.1987 18.5814 12.967 17.8436 14.0344 17.6706C15.1027 17.4974 16.0647 17.954 16.1851 18.6906C16.3054 19.4267 15.5371 20.164 14.4698 20.3375Z" fill="white"/>
<path d="M18.79 19.316C18.1364 19.9764 17.2491 20.1614 16.8095 19.7284C16.3703 19.2954 16.5443 18.4088 17.1988 17.7484C17.8534 17.0875 18.7407 16.903 19.1798 17.336C19.6185 17.7688 19.4445 18.6552 18.79 19.316Z" fill="white"/>
<path d="M14.4923 4.89688C15.5597 5.07318 16.3261 5.81236 16.2039 6.54848C16.0816 7.28459 15.1177 7.73869 14.0504 7.56263C12.9835 7.38681 12.2175 6.64738 12.3388 5.91127C12.462 5.17491 13.4259 4.7213 14.4923 4.89688Z" fill="white"/>
<path d="M18.7597 12.2626C19.4982 12.1429 19.9562 11.1828 19.7826 10.1182C19.609 9.05369 18.8695 8.28779 18.131 8.40755C17.3924 8.52731 16.9345 9.48738 17.1081 10.5519C17.2817 11.6165 18.0211 12.3824 18.7597 12.2626Z" fill="white"/>
<path d="M19.172 7.78473C19.6059 7.34666 19.4206 6.46254 18.7581 5.80999C18.0955 5.15744 17.2067 4.98357 16.7727 5.42164C16.3388 5.85972 16.5241 6.74384 17.1866 7.39639C17.8492 8.04894 18.738 8.22281 19.172 7.78473Z" fill="white"/>
<path d="M4.86678 3.66464C4.64216 3.44337 4.06853 3.65918 3.58555 4.14668C3.10256 4.63418 2.89311 5.20875 3.11773 5.43003C3.34235 5.65131 3.91598 5.43549 4.39897 4.94799C4.88196 4.4605 5.09141 3.88592 4.86678 3.66464Z" fill="white"/>
<path d="M1.91912 10.4249C2.05268 9.46307 2.57274 8.7403 3.08148 8.81064C3.59022 8.88049 3.89447 9.71719 3.76091 10.6786C3.62831 11.6398 3.10782 12.3627 2.59903 12.2926C2.09029 12.2223 1.7856 11.3863 1.91912 10.4249Z" fill="white"/>
<path d="M9.88063 2.47728C10.838 2.29815 11.69 2.56097 11.785 3.06408C11.8799 3.56763 11.1807 4.12062 10.2244 4.29952C9.26654 4.47884 8.41455 4.21559 8.32003 3.71272C8.22551 3.20965 8.92377 2.65637 9.88063 2.47728Z" fill="white"/>
<path d="M7.86446 3.12444C7.63424 2.73997 6.87235 2.77079 6.16273 3.19329C5.45311 3.61579 5.06448 4.26997 5.2947 4.65444C5.52492 5.03891 6.28681 5.00808 6.99643 4.58558C7.70604 4.16308 8.09468 3.50891 7.86446 3.12444Z" fill="white"/>
<path d="M2.592 6.77698C2.98369 6.0737 3.6194 5.67986 4.01248 5.8974C4.40461 6.11475 4.40557 6.86114 4.0134 7.56446C3.62219 8.2675 2.98605 8.66158 2.59339 8.44404C2.20127 8.22674 2.19983 7.4803 2.592 6.77698Z" fill="white"/>
<path d="M3.12506 19.7158C2.90303 19.9398 3.11931 20.512 3.60812 20.9939C4.09694 21.4758 4.67319 21.6849 4.89522 21.461C5.11725 21.2371 4.90098 20.6649 4.41216 20.183C3.92334 19.701 3.34709 19.4919 3.12506 19.7158Z" fill="white"/>
<path d="M9.90411 22.6556C8.94022 22.5227 8.21515 22.0036 8.28568 21.4963C8.35526 20.9895 9.19459 20.6856 10.159 20.8188C11.1229 20.9517 11.8479 21.4703 11.7774 21.9778C11.7069 22.4849 10.869 22.788 9.90411 22.6556Z" fill="white"/>
<path d="M2.52259 12.8181C2.01802 12.9126 1.75458 13.7625 1.93418 14.7165C2.11378 15.6705 2.66841 16.3673 3.17298 16.2728C3.67755 16.1784 3.94098 15.3284 3.76138 14.3744C3.58178 13.4204 3.02715 12.7236 2.52259 12.8181Z" fill="white"/>
<path d="M2.58296 16.7275C2.19733 16.957 2.22809 17.7168 2.65168 18.4245C3.07526 19.1323 3.73127 19.52 4.1169 19.2905C4.50254 19.061 4.47177 18.3012 4.04819 17.5935C3.6246 16.8857 2.9686 16.498 2.58296 16.7275Z" fill="white"/>
<path d="M5.36408 20.5684C5.14595 20.9599 5.54078 21.5939 6.24595 21.9846C6.95113 22.3753 7.69962 22.3747 7.91775 21.9832C8.13588 21.5918 7.74106 20.9577 7.03588 20.567C6.3307 20.1763 5.58222 20.1769 5.36408 20.5684Z" fill="white"/>
<path d="M20.4611 20.9913C19.9777 21.4787 19.4041 21.6946 19.1798 21.4731C18.9551 21.252 19.1647 20.6774 19.6477 20.1898C20.131 19.7022 20.7047 19.4865 20.9285 19.7078C21.1542 19.9289 20.9445 20.5039 20.4611 20.9913Z" fill="white"/>
<path d="M20.9655 16.3271C21.4742 16.3971 21.9945 15.6743 22.1275 14.7128C22.2605 13.7512 21.956 12.915 21.4473 12.845C20.9386 12.775 20.4183 13.4978 20.2853 14.4593C20.1522 15.4209 20.4568 16.2571 20.9655 16.3271Z" fill="white"/>
<path d="M12.2618 22.0739C12.3566 22.5771 13.2091 22.8398 14.166 22.6605C15.123 22.4813 15.8218 21.9281 15.727 21.4249C15.6323 20.9217 14.7797 20.6591 13.8228 20.8383C12.8659 21.0175 12.167 21.5707 12.2618 22.0739Z" fill="white"/>
<path d="M17.8844 21.945C17.1744 22.3672 16.4126 22.3982 16.1822 22.0137C15.9528 21.629 16.3407 20.9747 17.0502 20.5527C17.7602 20.1303 18.522 20.0996 18.7524 20.4838C18.9823 20.8685 18.5939 21.5224 17.8844 21.945Z" fill="white"/>
<path d="M20.0346 19.2405C20.4272 19.4579 21.0629 19.064 21.4546 18.3607C21.8464 17.6574 21.8457 16.911 21.4532 16.6936C21.0607 16.4763 20.4249 16.8702 20.0332 17.5735C19.6415 18.2768 19.6421 19.0232 20.0346 19.2405Z" fill="white"/>
<path d="M20.9221 5.42131C21.144 5.19727 20.9275 4.62532 20.4385 4.14383C19.9496 3.66235 19.3734 3.45365 19.1515 3.6777C18.9296 3.90175 19.1461 4.4737 19.635 4.95518C20.1239 5.43667 20.7002 5.64536 20.9221 5.42131Z" fill="white"/>
<path d="M14.1426 2.48244C15.1069 2.61562 15.8315 3.13415 15.761 3.64149C15.6914 4.14854 14.8526 4.45216 13.8877 4.31946C12.9238 4.18651 12.1987 3.66751 12.2688 3.16017C12.3389 2.65312 13.1781 2.34978 14.1426 2.48244Z" fill="white"/>
<path d="M21.5238 12.3197C22.0288 12.2252 22.2925 11.3752 22.113 10.4213C21.9334 9.46731 21.3785 8.7706 20.8735 8.86512C20.3685 8.95963 20.1047 9.80959 20.2843 10.7635C20.4639 11.7175 21.0188 12.4142 21.5238 12.3197Z" fill="white"/>
<path d="M21.4638 8.41018C21.8493 8.18055 21.8183 7.42092 21.3945 6.7135C20.9707 6.00608 20.3146 5.61875 19.9291 5.84838C19.5436 6.07801 19.5746 6.83764 19.9984 7.54506C20.4222 8.25248 21.0783 8.63981 21.4638 8.41018Z" fill="white"/>
<path d="M18.6827 4.56942C18.9008 4.17796 18.5059 3.54385 17.8007 3.1531C17.0954 2.76234 16.3469 2.76291 16.1287 3.15436C15.9106 3.54582 16.3055 4.17993 17.0107 4.57069C17.716 4.96144 18.4646 4.96088 18.6827 4.56942Z" fill="white"/>
<path d="M1.07229 9.38155C0.70729 9.33131 0.319304 9.95594 0.205698 10.7767C0.0920925 11.5974 0.295888 12.3035 0.660887 12.3537C1.02589 12.404 1.41387 11.7794 1.52748 10.9586C1.64108 10.1379 1.43729 9.43178 1.07229 9.38155Z" fill="white"/>
<path d="M11.8593 1.2565C11.8179 0.891519 11.1152 0.671147 10.2897 0.764285C9.46422 0.857423 8.82863 1.2288 8.87005 1.59378C8.91146 1.95876 9.61421 2.17914 10.4397 2.086C11.2651 1.99286 11.9007 1.62148 11.8593 1.2565Z" fill="white"/>
<path d="M8.85843 23.4993C8.80792 23.8632 9.43398 24.2502 10.2568 24.3638C11.0796 24.4774 11.7875 24.2745 11.838 23.9106C11.8885 23.5467 11.2625 23.1596 10.4397 23.0461C9.61689 22.9325 8.90894 23.1354 8.85843 23.4993Z" fill="white"/>
<path d="M0.70965 12.7435C0.343494 12.7848 0.122493 13.4858 0.216031 14.309C0.309568 15.1323 0.682224 15.7662 1.04838 15.7248C1.41454 15.6834 1.63554 14.9825 1.542 14.1592C1.44846 13.336 1.07581 12.7021 0.70965 12.7435Z" fill="white"/>
<path d="M23.8405 14.3614C23.7271 15.1819 23.3388 15.8067 22.9734 15.7562C22.609 15.7061 22.4054 15.0002 22.5197 14.1792C22.6325 13.3585 23.0209 12.7344 23.3858 12.7846C23.7506 12.8347 23.9547 13.5408 23.8405 14.3614Z" fill="white"/>
<path d="M13.757 24.3739C12.9313 24.4672 12.2288 24.2468 12.187 23.8821C12.1461 23.5168 12.7813 23.1455 13.6074 23.0519C14.4322 22.9586 15.1352 23.1788 15.1765 23.5438C15.2184 23.9086 14.5826 24.2804 13.757 24.3739Z" fill="white"/>
<path d="M15.1884 1.63761C15.2386 1.27379 14.6123 0.887223 13.7894 0.774198C12.9665 0.661174 12.2587 0.86449 12.2085 1.22832C12.1582 1.59214 12.7845 1.97871 13.6074 2.09173C14.4303 2.20476 15.1381 2.00144 15.1884 1.63761Z" fill="white"/>
<path d="M23.3372 12.3943C23.7033 12.3529 23.9242 11.6521 23.8306 10.829C23.7371 10.0059 23.3645 9.37214 22.9985 9.41351C22.6324 9.45487 22.4115 10.1557 22.5051 10.9788C22.5986 11.8019 22.9712 12.4356 23.3372 12.3943Z" fill="white"/>
</svg>
